<?xml version="1.0" encoding="UTF-8"?><svg id="Layer_3" xmlns="http://www.w3.org/2000/svg" width="547" height="582" viewBox="0 0 547 582"><defs><style>.cls-1{stroke:#000;stroke-miterlimit:10;}.cls-2{fill:#fff;}.cls-3{fill:#ffb1d7;}.cls-4{fill:#ff7eaf;}.cls-5{fill:#3f1800;}.cls-6{fill:#5b1a00;}.cls-7{fill:#5f2400;}.cls-8{fill:#4d2100;}.cls-9{fill:#510f00;}</style></defs><g><path class="cls-7" d="M73.44,357.66c22.6-40.92,56.34-76.35,99.15-90.81s95.12-4.51,126.6,31.61c24.62,28.25,33.82,68.4,32.02,106-1.79,37.6-13.41,73.41-25.67,108.31-9.76,27.79-21.72,57.5-46.41,71.16-25.91,14.33-58.25,6.7-86.52-4.17-25.5-9.81-50.26-22.01-73.88-36.42-33.89-20.68-68.4-51.09-72.39-91.82-4.16-42.44,26.09-77.52,54.2-106.62"/><path d="M74.74,358.42c15.26-27.57,35.56-53.07,61.52-71.27,12.4-8.7,26.07-15.73,40.6-20.08,13.96-4.19,28.64-5.77,43.18-4.83,29.47,1.9,58.15,14.6,77.78,36.93,21.59,24.54,30.96,57.87,32.02,90.02,1.22,37.24-8.87,73.7-20.71,108.65-5.3,15.65-10.54,31.49-17.84,46.34-6.5,13.22-14.93,26.12-27.09,34.79-29.06,20.71-67.2,9.03-97.23-3.02-17.67-7.09-34.88-15.33-51.52-24.59-14.39-8.01-28.5-16.65-41.38-26.95-23.7-18.96-44.71-44.7-46.49-76.22-1.86-32.93,17.49-61.68,38.33-85.33,5.08-5.77,10.35-11.36,15.69-16.89,1.34-1.39-.78-3.51-2.12-2.12-22.21,23-45.59,48.87-52.87,80.96-3.54,15.6-2.63,31.94,2.81,46.99,5.27,14.58,14.28,27.5,24.91,38.67,10.91,11.47,23.56,21.25,36.81,29.87,15.71,10.21,32.29,19.18,49.21,27.21,16.8,7.97,34.16,15.42,52.08,20.48,16.48,4.65,34.25,7.28,51.17,3.4,15.52-3.56,28.36-12.93,37.96-25.44,9.58-12.5,15.96-27.16,21.46-41.82,6.5-17.31,12.46-34.92,17.59-52.68,5.37-18.59,9.58-37.57,11.39-56.86,3.13-33.37-1.5-68.56-18.2-98.04-7.81-13.79-18.31-25.89-31.12-35.25-12.1-8.85-26.04-15.13-40.58-18.71-14.46-3.56-29.58-4.52-44.37-2.84-15.08,1.71-29.61,6.23-43.19,12.97-28.64,14.21-51.96,37.55-69.85,63.75-4.51,6.6-8.68,13.42-12.55,20.41-.94,1.69,1.65,3.21,2.59,1.51h0Z"/></g><g><path class="cls-4" d="M201.71,421.71c-20.22-10.46-41.44-20.78-63.58-20.89-22.14-.11-45.44,12.98-50.6,35.62-3.65,16.03,2.48,33.63,12.72,46.65,10.25,13.02,24.16,22.15,38.23,30.09,17.86,10.07,36.88,18.75,56.77,20.54,19.89,1.79,40.91-4.22,53.82-19.75,5.34-6.43,9.25-14.93,7.97-23.61-.83-5.64-3.73-10.75-6.73-15.58-12.76-20.61-28.31-39.33-45.99-55.39"/><path d="M202.46,420.42c-15.37-7.95-31.2-15.89-48.28-19.36-7.61-1.54-15.5-2.25-23.23-1.31-6.49,.79-12.8,2.58-18.71,5.38-11.65,5.53-21.34,15.24-25.29,27.68-4.62,14.58-.77,30.62,6.82,43.48,8.08,13.7,20.7,23.97,34.01,32.31,14.25,8.94,29.53,17.02,45.61,22.11,14.77,4.68,30.57,6.47,45.78,2.82,13.89-3.33,27.25-11.38,34.77-23.81,4.09-6.75,6.05-14.79,3.97-22.54-1.07-4.01-3.03-7.75-5.16-11.29-2.13-3.56-4.39-7.04-6.71-10.48-9.37-13.88-20.05-26.89-31.9-38.73-2.85-2.85-5.78-5.64-8.76-8.35-1.43-1.3-3.55,.82-2.12,2.12,11.84,10.77,22.68,22.64,32.31,35.43,4.86,6.46,9.43,13.14,13.68,20.03,4.16,6.76,7.69,13.99,6.12,22.14-2.69,13.97-15.36,24.64-28,29.73-13.37,5.39-28.11,5.84-42.12,2.96-16.2-3.34-31.3-10.56-45.63-18.62-13.34-7.5-26.44-16-36.43-27.76-9.47-11.14-15.94-25.76-15.18-40.59,.66-12.93,7.65-24.38,18.2-31.7,10.63-7.37,23.58-10.43,36.41-9.58,16.66,1.1,32.46,7.67,47.29,14.94,3.7,1.81,7.37,3.69,11.03,5.58,1.71,.89,3.23-1.7,1.51-2.59h0Z"/></g><path d="M280.21,411.08c1.93,0,1.93-3,0-3s-1.93,3,0,3h0Z"/><path d="M151.55,341.94c1.93,0,1.93-3,0-3s-1.93,3,0,3h0Z"/><g><path class="cls-8" d="M124.1,296.66c-9.16-12.31-20.84-22.17-30.86-33.68-10.02-11.52-18.69-25.65-19.39-41.16-.7-15.51,9.14-31.84,23.46-32.74,7.29-.46,14.46,2.95,20.82,7.11,24.35,15.92,41.45,44.51,44.62,74.64"/><path d="M125.4,295.91c-10.65-14.25-24.81-25.37-35.6-39.49-9.52-12.46-17.45-28.78-13.39-44.79,1.63-6.45,5.06-12.75,10.38-16.89,2.5-1.94,5.4-3.32,8.51-3.91,4.02-.76,8.16,0,11.96,1.37,7.56,2.74,14.44,7.87,20.41,13.17,5.71,5.07,10.82,10.83,15.21,17.09,8.9,12.68,14.98,27.31,17.57,42.59,.32,1.92,.59,3.85,.79,5.78s3.21,1.92,3,0c-1.74-16.21-7.27-31.93-15.99-45.71-8.52-13.47-20.36-25.84-34.58-33.31-7.31-3.84-15.77-5.87-23.64-2.47-6.45,2.78-11.28,8.54-14.16,14.82-3.24,7.07-4.15,14.74-3.06,22.41,1.22,8.61,4.77,16.77,9.36,24.1,9.79,15.67,24.39,27.27,36.24,41.24,1.52,1.79,2.99,3.62,4.39,5.5,1.14,1.53,3.75,.03,2.59-1.51h0Z"/></g><g><path class="cls-5" d="M325.09,352.64c24.75-9.27,52.86-9.03,78.16,.66,13.5,5.18,28.3,17.14,25.92,31.88-1.36,8.42-8.37,14.61-16.06,16.98-7.69,2.37-16.02,1.59-24.08,.48-19.12-2.62-38.1-6.92-56.67-12.85"/><path d="M325.49,354.08c14.47-5.39,29.98-7.54,45.38-6.46,7.78,.55,15.49,1.93,22.97,4.1,6.62,1.91,13.08,4.32,18.89,8.06,5.14,3.31,9.92,7.62,12.81,13.08s3.29,11.64,.54,17.03c-2.84,5.58-8.3,9.43-14.26,11.07-7.91,2.18-16.31,1.1-24.29-.04-16.5-2.35-32.81-5.95-48.78-10.73-2.01-.6-4.01-1.22-6-1.86-1.84-.59-2.63,2.31-.8,2.89,16.73,5.33,33.87,9.39,51.23,12.06,14.5,2.23,32.82,4.84,43.16-8.3,4.05-5.14,5.52-11.79,3.94-18.15-1.55-6.22-5.75-11.53-10.57-15.61-5.13-4.35-11.04-7.54-17.33-9.87-7.75-2.86-15.81-4.86-24-5.97-16.05-2.18-32.55-.97-48.03,3.85-1.9,.59-3.79,1.24-5.65,1.94s-1.02,3.57,.8,2.89h0Z"/></g><g><path class="cls-9" d="M272.47,279.36c12.67-5.82,25.99-12.22,33.54-24.43,7.22-11.69,7.86-26.61,10.5-40.45,2.64-13.84,8.91-28.63,21.56-32.82,17.28,10.2,3.89,42.2,18.05,56.94,8.89-33.71,31.2-62.68,60.43-78.47-1.41,14.73-2.81,29.47-4.22,44.2-.68,7.12-.79,15.69,4.72,20.1,20.98-3.84,27.87-30.62,37.34-50.63,5.53-11.68,13.16-22.17,22.39-30.76,1.82-1.69,3.77-3.35,6.12-4.05,4.02-1.2,8.49,.67,11.82,3.56,8.69,7.53,10.9,21.07,8.22,32.29-2.67,11.22-9.3,20.69-15.79,29.86-8.59,12.14-17.19,24.28-25.78,36.42-1.61,2.27-3.29,4.78-3.19,7.68,.09,2.67,1.7,5.07,3.44,7.07,8.31,9.54,22.18,16.65,22.22,29.39,.03,12.07-13.9,18.78-25.1,16.2-11.2-2.58-20.43-11-30.32-17.39-9.89-6.38-22.62-10.81-32.31-4.9,6.45,10.25,12.9,20.51,19.34,30.76,3.43,5.46,6.75,13.26,2.47,17.66-4.23,4.36-11.39,.77-16.57-2.69-27.31-18.25-63.26-29.74-89.87-12.53"/><path d="M273.23,280.65c7.43-3.42,14.92-6.93,21.54-11.8,6.76-4.97,12.23-11.25,15.54-19.01,6.73-15.8,5.13-33.75,11.95-49.51,3.2-7.4,8.3-14.54,16.22-17.23l-1.16-.15c6.73,4.04,8.37,12.06,9.04,19.32,.78,8.49,.39,17.19,2.51,25.51,1.12,4.39,3.06,8.56,6.2,11.87,.78,.82,2.22,.41,2.51-.66,3.42-12.88,8.81-25.18,15.98-36.41,6.99-10.93,15.66-20.78,25.68-29.02,5.62-4.61,11.68-8.67,18.07-12.14-.75-.43-1.5-.86-2.26-1.3-.93,9.68-1.85,19.37-2.78,29.05-.46,4.8-.92,9.6-1.38,14.4-.34,3.57-.6,7.18-.18,10.76,.39,3.31,1.31,6.58,3.4,9.24,.48,.61,1.01,1.18,1.6,1.69,.83,.71,1.46,.67,2.48,.45,1.42-.3,2.82-.72,4.18-1.26,5.47-2.17,10-6,13.62-10.58,8.05-10.18,12.34-22.78,17.5-34.53,3.15-7.18,6.81-14.07,11.37-20.47,2.38-3.35,4.98-6.54,7.77-9.56,1.38-1.5,2.81-2.95,4.28-4.36,1.45-1.39,2.92-2.81,4.68-3.8,7.15-4.02,14.63,3.8,17.6,9.64,3.18,6.24,3.95,13.76,2.88,20.63-1.26,8.09-5.01,15.53-9.34,22.39-4.82,7.63-10.27,14.88-15.48,22.25-5.54,7.82-11.07,15.65-16.61,23.47-2.32,3.28-4.68,6.8-3.73,11.02,.8,3.56,3.56,6.43,6.07,8.93,7.76,7.76,23.46,17.3,18.5,30.5-2.08,5.54-7.78,8.89-13.33,10.04-7.02,1.46-13.83-1.04-19.9-4.46-13.52-7.63-25.76-21.19-42.5-20.68-3.68,.11-7.25,1.08-10.41,2.97-.68,.4-.97,1.36-.54,2.05,3.62,5.76,7.24,11.52,10.86,17.28,1.77,2.81,3.53,5.62,5.3,8.43,1.58,2.52,3.27,5,4.67,7.62,1.9,3.55,4.53,9.4,1.44,13.03-3.39,3.99-9.61,.64-13.08-1.47-4.64-2.81-9.1-5.86-13.87-8.45s-9.96-5.03-15.16-7.06c-9.95-3.9-20.52-6.55-31.24-6.87-11.6-.35-23.19,2.34-33.01,8.64-1.62,1.04-.12,3.64,1.51,2.59,18.84-12.08,42.25-9.22,62.13-1.38,5.4,2.13,10.63,4.66,15.7,7.48,2.52,1.4,5,2.88,7.44,4.43,2.27,1.44,4.46,3.01,6.83,4.28,4.14,2.21,9.73,4.16,13.86,.88s3.65-8.83,2.01-13.25c-1.08-2.91-2.62-5.56-4.27-8.18-2.03-3.23-4.06-6.46-6.09-9.69-4.15-6.6-8.3-13.21-12.45-19.81-.18,.68-.36,1.37-.54,2.05,5.99-3.56,13.07-2.94,19.44-.76,6.91,2.36,12.88,6.58,18.78,10.77,10.27,7.3,22.29,15.83,35.55,12.06,5.04-1.43,9.83-4.5,12.51-9.1,2.82-4.82,2.75-10.69,.56-15.74s-6.61-9.38-10.8-13.16c-2.19-1.98-4.43-3.91-6.57-5.95-2.23-2.13-4.73-4.45-6.02-7.29-1.62-3.59,.46-6.73,2.5-9.61,2.43-3.44,4.87-6.88,7.3-10.32,4.96-7.01,9.93-14.03,14.89-21.04,8.38-11.84,18.07-24.15,20.1-38.96,.86-6.25,.38-12.82-1.86-18.75s-6.26-11.51-12.1-14.13c-3.18-1.43-6.7-1.85-9.96-.42-3.25,1.43-5.87,4.24-8.33,6.72-5.11,5.16-9.65,10.9-13.54,17.02-6.79,10.67-10.88,22.61-16.17,34.02-4.36,9.4-9.83,19.72-19.38,24.75-2.23,1.18-4.63,1.96-7.11,2.42l1.46,.39c-5.3-4.38-4.88-12.32-4.32-18.52,.85-9.45,1.8-18.89,2.7-28.33,.52-5.46,1.04-10.93,1.57-16.39,.11-1.19-1.34-1.79-2.26-1.3-11.57,6.28-22.03,14.54-30.95,24.22-9.13,9.9-16.69,21.26-22.34,33.48-3.23,6.98-5.85,14.23-7.82,21.67l2.51-.66c-7.24-7.64-6.91-19.61-7.43-29.41-.51-9.52-1.19-20.88-9.68-26.95-.46-.33-1.04-.82-1.6-.96-.78-.2-1.68,.3-2.38,.59-1.41,.58-2.76,1.27-4.03,2.11-2.54,1.67-4.77,3.78-6.65,6.16-3.99,5.05-6.62,11.04-8.45,17.18-4.19,14.09-3.57,29.47-9.65,43.02-2.9,6.46-7.4,11.85-12.98,16.19-5.46,4.24-11.66,7.45-17.89,10.41-1.57,.75-3.15,1.47-4.72,2.2-1.75,.81-.23,3.39,1.51,2.59h0Z"/></g><g><path class="cls-6" d="M254.73,270.2c-9.12-16.95-17.37-37.58-9.8-54.69,5.74-12.97,18.95-19.84,28.13-30.26s12.58-30.41,.49-37.77c-12.3,12.66-29,20.42-46.39,21.54,11.02-26.25,22.26-53.87,20.1-83.02-.19-2.6-.81-5.67-3.07-6.75-2.39-1.15-4.95,.7-6.85,2.48-8.48,7.96-16.23,16.79-23.11,26.34-1.74,2.42-3.58,5-6.29,6.03-5.93,2.26-12.41-4.69-12.76-11.47-.36-6.78,3.27-12.82,6.8-18.32,12.33-19.23,25.77-40.72,22.23-64.26-.61-4.09-2.14-8.62-5.72-10.35-3.66-1.77-7.75,.16-11.21,2.06-20.22,11.1-42.95,26.17-44.22,50.63-.38,7.35,1.34,14.78,1.02,22.14s-3.49,15.31-10.05,17.5c-12.4,4.14-27.8-14.23-37.53-5.24-4.12,3.81-4.1,11.02-1.46,16.34,2.64,5.33,7.26,9.21,11.74,12.92,13,10.76,26,21.51,39.01,32.27,.94,9.72-12.13,12.12-21.23,10.44-9.1-1.68-21.98-.97-22.62,8.72-.54,8.04,8.5,12.72,15.69,15.71,19.47,8.08,37.22,21.2,51.22,37.87,6.63,7.9,12.75,18.8,8.9,28.17"/><path d="M256.02,269.44c-9.55-17.79-19.43-41.49-5.87-59.87,5.64-7.64,13.71-13.04,20.46-19.6,3.04-2.95,5.79-6.12,7.8-9.87s3.29-7.44,3.95-11.42c1.4-8.4-.37-17.71-8.06-22.5-.56-.35-1.36-.23-1.82,.23-11.97,12.25-28.21,19.94-45.33,21.11,.48,.63,.96,1.27,1.45,1.9,7.67-18.28,15.33-36.84,18.68-56.49,.82-4.84,1.4-9.73,1.63-14.63,.22-4.72,.34-9.65-.39-14.33-.6-3.86-3.37-7.75-7.78-6.26-2.02,.68-3.63,2.16-5.15,3.6-1.83,1.73-3.62,3.51-5.37,5.32-3.41,3.52-6.67,7.17-9.79,10.95-3.05,3.7-5.79,7.59-8.72,11.38-1.22,1.59-2.69,3.25-4.67,3.85-1.62,.49-3.29,.09-4.72-.75-3.22-1.88-5.44-5.74-5.65-9.43-.27-4.66,1.57-9.07,3.83-13.05,2.28-4.03,4.93-7.86,7.38-11.79,4.88-7.83,9.47-15.86,12.94-24.42,3.42-8.44,5.63-17.48,5.44-26.63-.14-7.01-1.41-18.95-10.7-19.24-4.29-.13-8.3,2.51-11.89,4.53-3.33,1.87-6.62,3.82-9.84,5.88-6.44,4.13-12.65,8.74-17.99,14.24-5.18,5.33-9.51,11.54-12,18.58-1.26,3.57-2,7.31-2.25,11.08-.34,5.15,.39,10.29,.78,15.41,.35,4.47,.46,8.98-.77,13.33-.98,3.45-2.78,7.02-5.89,9-5.41,3.45-12.15,.55-17.39-1.78-5.27-2.35-11.22-5.77-17.21-4.85-2.97,.45-5.58,2.21-7.26,4.68-2.15,3.16-2.46,7.24-1.86,10.91,1.49,9.02,9.32,14.94,15.92,20.4,8.23,6.8,16.45,13.61,24.68,20.41,4.05,3.35,8.09,6.69,12.14,10.04l-.44-1.06c.38,4.65-3.02,7.32-7.16,8.51-4.79,1.38-9.45,.81-14.28,.14-8.24-1.13-21.69-.42-22.41,10.5-.36,5.44,3.43,9.65,7.65,12.5,4.98,3.36,10.83,5.22,16.19,7.86,12.09,5.95,23.22,13.78,32.97,23.06,5.44,5.18,10.85,10.79,14.91,17.14,3.9,6.1,6.96,13.64,4.13,20.79-.71,1.8,2.19,2.57,2.89,.8,4.56-11.54-3.9-23.53-11.15-31.81-8.1-9.24-17.44-17.41-27.68-24.2-5.03-3.33-10.28-6.33-15.72-8.93-4.81-2.3-9.94-4.02-14.44-6.91-3.72-2.38-7.37-6-6.71-10.81,.55-4.03,4.08-6.02,7.72-6.84,4.22-.96,8.73-.66,12.96,.08,4.35,.76,8.89,.79,13.18-.32,3.74-.97,7.57-3,9.19-6.7,.78-1.78,1.49-4.8-.09-6.26-2.71-2.49-5.72-4.73-8.56-7.08-11-9.1-22.21-17.99-33-27.34-4.35-3.77-8.66-8.2-9.87-14.04-.92-4.45,.09-9.99,4.65-12.03,3.32-1.49,7.19-.24,10.38,.99,4.07,1.57,7.93,3.64,12.04,5.11,3.82,1.36,8.09,2.24,12.06,1.02,4.85-1.49,7.98-5.69,9.71-10.27,2.15-5.71,1.89-11.85,1.36-17.82-.56-6.33-1.24-12.65,.1-18.93,2.14-10.05,8.32-18.48,15.79-25.3,7.67-7,16.61-12.47,25.66-17.49,2.56-1.42,5.36-3.18,8.37-3.24,2.86-.06,4.83,1.81,6.02,4.25,1.19,2.46,1.62,5.29,1.88,7.99,.3,3.08,.32,6.19,.08,9.27-.96,12.43-6.16,24.11-12.21,34.84-3.06,5.44-6.4,10.71-9.76,15.96-3.29,5.14-6.66,10.51-7.36,16.71-.63,5.52,1.5,11.1,6.02,14.45,1.92,1.42,4.31,2.28,6.71,1.99,2.73-.33,4.94-2.01,6.67-4.06,2.01-2.37,3.72-5.01,5.62-7.48,2.09-2.73,4.27-5.39,6.52-7.99,4.27-4.94,8.76-9.94,13.71-14.21,.96-.83,2.29-1.89,3.64-1.84,1.36,.05,2.12,1.24,2.51,2.4,.95,2.81,.8,6.09,.84,9.02,.1,6.73-.47,13.46-1.59,20.09-2.23,13.25-6.47,26.07-11.31,38.57-2.36,6.09-4.87,12.13-7.4,18.15-.37,.88,.56,1.96,1.45,1.9,17.91-1.22,34.91-9.15,47.45-21.98l-1.82,.23c6.46,4.02,7.85,12.09,6.68,19.11-.66,3.95-2,7.79-3.96,11.28-2.08,3.7-4.93,6.74-8.01,9.63-6.78,6.38-14.52,11.83-20.06,19.42-6.08,8.33-7.86,18.53-6.53,28.63,1.6,12.09,6.79,23.47,12.51,34.12,.91,1.7,3.5,.19,2.59-1.51h0Z"/></g><ellipse class="cls-1" cx="177.3" cy="329.53" rx="43.76" ry="27.04" transform="translate(-189.51 255.51) rotate(-50.31)"/><ellipse class="cls-1" cx="270.99" cy="382.09" rx="42.29" ry="25.03" transform="translate(-184.9 489.77) rotate(-67.94)"/><ellipse class="cls-2" cx="183.26" cy="304.77" rx="12.43" ry="9.85" transform="translate(-171.11 275.01) rotate(-54.18)"/><ellipse class="cls-2" cx="167.41" cy="310.8" rx="4.58" ry="4.3" transform="translate(-159.39 444.3) rotate(-83.91)"/><ellipse class="cls-2" cx="284.09" cy="367.16" rx="12" ry="9.13" transform="translate(-157.53 510.29) rotate(-70.23)"/><ellipse class="cls-2" cx="281.1" cy="386.86" rx="4.37" ry="4.04" transform="translate(-133.33 625.44) rotate(-83.93)"/><ellipse class="cls-3" cx="378.26" cy="373.32" rx="10.67" ry="39.88" transform="translate(-35.17 707.28) rotate(-83.55)"/><ellipse class="cls-3" cx="115.26" cy="235.8" rx="12.55" ry="44.39" transform="translate(-123.1 125.93) rotate(-39.2)"/><ellipse class="cls-2" cx="129.36" cy="423.08" rx="10.04" ry="10.68"/><ellipse class="cls-2" cx="118.26" cy="429.1" rx="5.61" ry="5.97" transform="translate(-47.87 16.17) rotate(-6.51)"/></svg>