<?xml version="1.0" encoding="UTF-8"?><svg id="Layer_9" xmlns="http://www.w3.org/2000/svg" width="763.5" height="401.5" xmlns:xlink="http://www.w3.org/1999/xlink" viewBox="0 0 763.5 401.5"><defs><style>.cls-1{fill:aqua;}.cls-2{fill:#047f00;}.cls-3{fill:blue;}.cls-4{fill:#ff0;}.cls-5{fill:#ff6;}.cls-6{fill:#f0f;}.cls-7{fill:#662d90;}.cls-8{fill:#99f;}.cls-9{fill:#66f;}.cls-10{fill:#c31500;}.cls-11{fill:#512500;}.cls-12{filter:url(#AI_GaussianBlur_4-12);}.cls-13{filter:url(#AI_GaussianBlur_4-11);}.cls-14{filter:url(#AI_GaussianBlur_4-10);}.cls-15{fill:#005b1a;stroke:#047f00;}.cls-15,.cls-16{stroke-miterlimit:10;}.cls-16{fill:#bfb5a7;stroke:#000;}.cls-17{filter:url(#AI_GaussianBlur_4);}.cls-18{filter:url(#AI_GaussianBlur_4-7);}.cls-19{filter:url(#AI_GaussianBlur_4-6);}.cls-20{filter:url(#AI_GaussianBlur_4-8);}.cls-21{filter:url(#AI_GaussianBlur_4-9);}.cls-22{filter:url(#AI_GaussianBlur_4-2);}.cls-23{filter:url(#AI_GaussianBlur_4-3);}.cls-24{filter:url(#AI_GaussianBlur_4-4);}.cls-25{filter:url(#AI_GaussianBlur_4-5);}</style><filter id="AI_GaussianBlur_4"><feGaussianBlur stdDeviation="4"/></filter><filter id="AI_GaussianBlur_4-2"><feGaussianBlur stdDeviation="4"/></filter><filter id="AI_GaussianBlur_4-3"><feGaussianBlur stdDeviation="4"/></filter><filter id="AI_GaussianBlur_4-4"><feGaussianBlur stdDeviation="4"/></filter><filter id="AI_GaussianBlur_4-5"><feGaussianBlur stdDeviation="4"/></filter><filter id="AI_GaussianBlur_4-6"><feGaussianBlur stdDeviation="4"/></filter><filter id="AI_GaussianBlur_4-7"><feGaussianBlur stdDeviation="4"/></filter><filter id="AI_GaussianBlur_4-8"><feGaussianBlur stdDeviation="4"/></filter><filter id="AI_GaussianBlur_4-9"><feGaussianBlur stdDeviation="4"/></filter><filter id="AI_GaussianBlur_4-10"><feGaussianBlur stdDeviation="4"/></filter><filter id="AI_GaussianBlur_4-11"><feGaussianBlur stdDeviation="4"/></filter><filter id="AI_GaussianBlur_4-12"><feGaussianBlur stdDeviation="4"/></filter></defs><path class="cls-2" d="M761.48,189.72c1.93,0,1.93-3,0-3s-1.93,3,0,3h0Z"/><rect class="cls-16" x="53.42" y="104.52" width="698" height="277" rx="12" ry="12"/><rect class="cls-10" x="80.42" y="130.52" width="644" height="225" rx="12" ry="12"/><path d="M171.8,103.34c.14-.31,0,0,0,0,1,.42,1.84,.69,.94,2.55-34.55,71.03-37.86,91.21-116.87,121.14-2.07,.78-2.07,0-2.39-1.03-.38,.1,0,0,0,0-.32-1.03-.76-2.06,1.27-2.8,77.43-28.26,80.78-50.02,114.29-118.79,.88-1.8,1.77-1.48,2.77-1.06Z"/><path d="M689.07,381.09c-.01,.34,0,0,0,0-1.09,0-1.97,.08-1.85-1.99,4.44-78.86-.3-98.75,61.02-156.87,1.61-1.52,1.91-.8,2.61,.02,.31-.24,0,0,0,0,.7,.83,1.5,1.61-.08,3.07-60.51,55.97-55.2,77.34-59.54,153.71-.11,2-1.06,2.05-2.15,2.05Z"/><path d="M454.41,107.3c-97.83,102.33-148.98,83.13-252.13-1.44-1.37-1.12-1.14-1.24-.32-2.04-.23-.2-.22-.19,0,0,.82-.8,1.18-1.09,2.53,0,101.43,81.48,151.07,104.72,247.33,1.74,1.28-1.36,1.51-.64,2.43-.07,.21-.24,.2-.22,0,0,.92,.57,1.46,.47,.16,1.83Z"/><path d="M706.44,107.68c-103.16,69.28-146.67,46.07-251.95-.87-1.4-.62-1.31-.94-.78-1.89-.23-.11-.21-.1,0,0,.54-.94,.92-1.31,2.3-.7,104.09,46.07,146.28,70.19,248.55,1.2,1.36-.91,1.49-.51,2.22,.31,.24-.16,.22-.15,0,0,.73,.82,1.03,1.03-.33,1.95Z"/><g class="cls-17"><circle class="cls-4" cx="73.92" cy="217.02" r="10.5"/></g><g class="cls-22"><circle class="cls-1" cx="529.92" cy="138.02" r="10.5"/></g><g class="cls-23"><circle class="cls-6" cx="458.92" cy="109.02" r="10.5"/></g><g class="cls-24"><circle class="cls-3" cx="395.92" cy="155.02" r="10.5"/></g><g class="cls-25"><circle class="cls-4" cx="331.92" cy="176.02" r="10.5"/></g><g class="cls-19"><circle class="cls-1" cx="243.92" cy="138.02" r="10.5"/></g><g class="cls-18"><circle class="cls-7" cx="169.92" cy="109.02" r="10.5"/></g><g class="cls-20"><circle class="cls-9" cx="130.92" cy="179.02" r="10.5"/></g><g class="cls-21"><circle class="cls-4" cx="692.92" cy="332.02" r="10.5"/></g><g class="cls-14"><circle class="cls-7" cx="732.92" cy="243.02" r="10.5"/></g><g class="cls-13"><circle class="cls-3" cx="687.92" cy="119.02" r="10.5"/></g><g class="cls-12"><circle class="cls-4" cx="595.92" cy="148.02" r="10.5"/></g><circle class="cls-3" cx="130.42" cy="178.52" r="9"/><circle class="cls-5" cx="72.92" cy="216.02" r="9.5"/><circle class="cls-8" cx="169.92" cy="109.02" r="9.5"/><circle class="cls-1" cx="244.42" cy="137.52" r="9"/><ellipse class="cls-4" cx="331.42" cy="174.02" rx="9" ry="8.5"/><circle class="cls-3" cx="395.42" cy="154.52" r="7"/><ellipse class="cls-6" cx="457.42" cy="107.02" rx="8" ry="8.5"/><circle class="cls-1" cx="528.42" cy="137.52" r="9"/><circle class="cls-4" cx="596.42" cy="148.52" r="8"/><ellipse class="cls-3" cx="687.42" cy="119.52" rx="8" ry="7"/><circle class="cls-7" cx="733.42" cy="243.52" r="8"/><ellipse class="cls-4" cx="693.42" cy="332.02" rx="8" ry="7.5"/><g><path class="cls-15" d="M140.03,200.75c-.62,.24-1.24,.48-1.86,.72-16.12-50.57-22.64-85.3-65.07-122.19,.5-.42,1-.83,1.5-1.25,42.62,37.07,49.27,71.91,65.43,122.72Z"/><path class="cls-2" d="M98.67,103.45c-.08-16.78-4.39-33.46-12.39-48.21-2.28-4.21-4.87-8.24-7.73-12.08-1.14-1.53-3.75-.04-2.59,1.51,9.81,13.15,16.24,28.64,18.67,44.87,.69,4.6,1.01,9.25,1.04,13.9,0,1.93,3.01,1.93,3,0h0Z"/><path class="cls-2" d="M106.55,115.26c7.32-15.84,10.81-33.3,10.03-50.74-.09-1.92-3.09-1.93-3,0,.76,16.89-2.52,33.87-9.62,49.22-.8,1.74,1.78,3.27,2.59,1.51h0Z"/><path class="cls-2" d="M102.95,109.46c1.8-10.13,5.99-19.97,5.29-30.42-.13-1.92-3.13-1.93-3,0,.68,10.17-3.43,19.76-5.19,29.63-.34,1.89,2.55,2.7,2.89,.8h0Z"/><path class="cls-2" d="M92.91,98.88c.28-13.95-4-27.87-12.12-39.23-1.11-1.56-3.72-.06-2.59,1.51,7.84,10.96,11.99,24.24,11.71,37.71-.04,1.93,2.96,1.93,3,0h0Z"/><path class="cls-2" d="M123.3,142.01c3.83-17.23,5.21-34.97,4.05-52.59-.13-1.92-3.13-1.93-3,0,1.14,17.36-.17,34.81-3.94,51.79-.42,1.88,2.47,2.68,2.89,.8h0Z"/><path class="cls-2" d="M115.32,132c1.85-11.39,3.84-22.75,5.97-34.08,.35-1.89-2.54-2.7-2.89-.8-2.13,11.34-4.12,22.7-5.97,34.08-.31,1.89,2.58,2.7,2.89,.8h0Z"/><path class="cls-2" d="M117.73,138.35c-.32-2.94,.96-5.77,1.9-8.49,.99-2.86,1.98-5.72,2.97-8.58,.63-1.83-2.26-2.61-2.89-.8-1.03,2.97-2.05,5.93-3.08,8.9s-2.24,5.86-1.9,8.97c.09,.81,.63,1.5,1.5,1.5,.74,0,1.59-.69,1.5-1.5h0Z"/><path class="cls-2" d="M81.83,90.12c-5.98,.35-12.09,.75-18.03-.28s-11.01-3.58-15.87-6.87c-1.6-1.08-3.11,1.51-1.51,2.59,5.06,3.41,10.54,6.12,16.59,7.17s12.55,.75,18.82,.38c1.92-.11,1.93-3.11,0-3h0Z"/><path class="cls-2" d="M89.95,95.47c-6.22-.86-12.38,.33-18.61,.23-3.02-.05-6.04-.48-8.83-1.7s-5.12-2.96-7.27-4.99c-1.41-1.32-3.53,.8-2.12,2.12,4.62,4.35,10.06,7.07,16.45,7.49s13.08-1.17,19.59-.27c.81,.11,1.6-.2,1.85-1.05,.2-.7-.25-1.73-1.05-1.85h0Z"/><path class="cls-2" d="M94.94,100.98c-10,.43-20,.87-30.01,1.3-1.92,.08-1.93,3.08,0,3,10-.43,20-.87,30.01-1.3,1.92-.08,1.93-3.08,0-3h0Z"/><path class="cls-2" d="M112.19,131.16c-8.09,.37-16.06-2.99-23.41-5.99s-14.73-6.64-21.72-10.68c-1.67-.97-3.19,1.62-1.51,2.59,7.22,4.17,14.72,7.83,22.44,10.98s15.83,6.48,24.21,6.1c1.92-.09,1.93-3.09,0-3h0Z"/><path class="cls-2" d="M108.43,119.04c-7.71-.22-15.3-2.11-22.2-5.54-1.72-.86-3.24,1.73-1.51,2.59,7.39,3.68,15.46,5.71,23.72,5.95,1.93,.06,1.93-2.94,0-3h0Z"/><path class="cls-2" d="M100.04,110.58c-6.59,.05-13.12-.71-19.52-2.28-1.87-.46-2.67,2.43-.8,2.89,6.64,1.63,13.47,2.44,20.32,2.39,1.93-.01,1.93-3.01,0-3h0Z"/><path class="cls-2" d="M110.97,125.26c-4.4-.6-8.57-2.12-12.3-4.52-.68-.44-1.66-.14-2.05,.54-.42,.73-.14,1.61,.54,2.05,3.92,2.53,8.4,4.19,13.02,4.82,.8,.11,1.61-.19,1.85-1.05,.19-.7-.24-1.74-1.05-1.85h0Z"/><path class="cls-2" d="M128.29,156.55c4.81-13.13,8.51-26.64,11.08-40.39,.35-1.89-2.54-2.7-2.89-.8-2.56,13.75-6.27,27.26-11.08,40.39-.66,1.82,2.23,2.6,2.89,.8h0Z"/><path class="cls-2" d="M118.25,141.57c-7.17-.41-14.35,.43-21.52-.02-6.73-.42-13.25-2.34-19.14-5.63-1.69-.94-3.2,1.65-1.51,2.59,6.07,3.39,12.76,5.41,19.69,5.97,7.49,.6,14.99-.34,22.49,.09,1.93,.11,1.92-2.89,0-3h0Z"/><path class="cls-2" d="M115.55,136.56c-11.78,.7-23.77,1.4-35.36-1.36-1.88-.45-2.68,2.44-.8,2.89,11.86,2.83,24.1,2.19,36.16,1.47,1.92-.11,1.93-3.11,0-3h0Z"/><path class="cls-2" d="M123.65,161.77c1.93,0,1.93-3,0-3s-1.93,3,0,3h0Z"/><path class="cls-2" d="M127.02,159.52c-12.06-.22-23.98-2.41-35.35-6.43-1.82-.65-2.61,2.25-.8,2.89,11.61,4.11,23.84,6.31,36.15,6.54,1.93,.04,1.93-2.96,0-3h0Z"/><path class="cls-2" d="M122.64,150.28c-9.25,.04-18.41-1.24-27.3-3.81-1.86-.54-2.65,2.36-.8,2.89,9.12,2.64,18.6,3.96,28.09,3.92,1.93,0,1.93-3.01,0-3h0Z"/><path class="cls-2" d="M79.39,84.41c2.15-13.48-2.84-27.69-13.18-36.68-1.45-1.26-3.58,.85-2.12,2.12,9.48,8.24,14.39,21.31,12.4,33.76-.3,1.89,2.59,2.7,2.89,.8h0Z"/><path class="cls-2" d="M74.75,82.16c-3.98,.5-7.5-2.08-9.7-5.21-2.64-3.76-4.01-8.23-6.29-12.19-.96-1.67-3.56-.16-2.59,1.51,2.49,4.32,3.92,9.22,7.02,13.18,2.71,3.46,6.97,6.29,11.55,5.71,.8-.1,1.5-.62,1.5-1.5,0-.73-.69-1.6-1.5-1.5h0Z"/><path class="cls-2" d="M86.97,91.46c.48-6,.17-12.02-.86-17.96-.14-.8-1.12-1.25-1.85-1.05-.84,.23-1.19,1.04-1.05,1.85,.98,5.66,1.21,11.43,.75,17.16-.16,1.92,2.85,1.91,3,0h0Z"/><path class="cls-2" d="M98.84,109v-2.36c0-.38-.17-.79-.44-1.06s-.69-.46-1.06-.44-.79,.14-1.06,.44-.44,.65-.44,1.06v2.36c0,.38,.17,.79,.44,1.06s.69,.46,1.06,.44,.79-.14,1.06-.44,.44-.65,.44-1.06h0Z"/><path class="cls-2" d="M121.27,145.11c.14-.39,.29-.78,.45-1.16l-.15,.36c.57-1.34,1.28-2.6,2.13-3.78,.21-.3,.25-.82,.15-1.16s-.36-.73-.69-.9c-.35-.18-.77-.28-1.16-.15s-.66,.36-.9,.69c-1.17,1.62-2.07,3.42-2.73,5.3-.26,.74,.3,1.67,1.05,1.85,.84,.19,1.57-.25,1.85-1.05h0Z"/><path class="cls-15" d="M127.85,198.4c-.66-.03-1.33-.07-1.99-.1,5.95-52.74,14.18-87.11-9.48-138.11,.63-.18,1.25-.35,1.88-.53,23.75,51.25,15.6,85.76,9.59,138.74Z"/><path class="cls-2" d="M129.79,92.83c6.83-15.47,9.79-32.56,8.44-49.43-.38-4.77-1.1-9.52-2.15-14.19-.42-1.88-3.31-1.09-2.89,.8,3.55,15.91,3.07,32.64-1.34,48.34-1.24,4.43-2.79,8.77-4.65,12.98-.77,1.75,1.81,3.28,2.59,1.51h0Z"/><path class="cls-2" d="M132.41,106.53c13.16-11.46,23.37-26.05,29.77-42.27,.71-1.8-2.19-2.58-2.89-.8-6.21,15.74-16.25,29.84-29,40.95-1.46,1.27,.67,3.39,2.12,2.12h0Z"/><path class="cls-2" d="M131.44,99.73c5.79-8.53,13.56-15.77,17.2-25.62,.67-1.81-2.23-2.6-2.89-.8-3.52,9.54-11.28,16.65-16.9,24.91-1.09,1.6,1.51,3.1,2.59,1.51h0Z"/><path class="cls-2" d="M126.39,86.32c6.04-12.79,7.8-27.27,4.99-41.14-.38-1.89-3.28-1.09-2.89,.8,2.64,13.02,.99,26.81-4.69,38.83-.82,1.74,1.77,3.26,2.59,1.51h0Z"/><path class="cls-2" d="M136.72,137.75c10.54-14.17,18.98-29.81,25.12-46.36,.67-1.81-2.23-2.59-2.89-.8-6.05,16.31-14.44,31.69-24.82,45.64-1.15,1.55,1.45,3.05,2.59,1.51h0Z"/><path class="cls-2" d="M133.53,125.36c6.34-9.64,12.79-19.2,19.37-28.67,1.1-1.59-1.5-3.09-2.59-1.51-6.58,9.48-13.03,19.04-19.37,28.67-1.06,1.62,1.53,3.12,2.59,1.51h0Z"/><path class="cls-2" d="M133.07,132.12c.8-2.54,2.96-4.45,4.73-6.34,2.17-2.31,4.34-4.62,6.51-6.93,1.32-1.41-.8-3.53-2.12-2.12-2.3,2.44-4.59,4.89-6.89,7.33-2.04,2.17-4.21,4.34-5.13,7.26-.58,1.85,2.31,2.64,2.89,.8h0Z"/><path class="cls-2" d="M119.71,73.57c-5.47-2.07-10.98-4.18-15.9-7.4s-8.72-7.77-11.83-12.78c-1.02-1.64-3.61-.13-2.59,1.51,3.32,5.33,7.31,10.1,12.56,13.62s11.14,5.73,16.97,7.93c1.81,.68,2.59-2.21,.8-2.89h0Z"/><path class="cls-2" d="M124.96,81.7c-5.1-3.19-11-4.56-16.43-7.03-2.71-1.23-5.28-2.76-7.37-4.91s-3.81-4.98-5.01-7.85c-.31-.75-.99-1.27-1.85-1.05-.71,.19-1.36,1.1-1.05,1.85,2.58,6.18,6.65,11.07,12.71,14.06,5.7,2.8,12.05,4.14,17.47,7.53,1.64,1.03,3.15-1.57,1.51-2.59h0Z"/><path class="cls-2" d="M127.25,88.83c-9.31-3.69-18.61-7.38-27.92-11.07-1.79-.71-2.57,2.19-.8,2.89,9.31,3.69,18.61,7.38,27.92,11.07,1.79,.71,2.57-2.19,.8-2.89h0Z"/><path class="cls-2" d="M130.66,123.43c-7.23-2.84-12.93-8.97-18.21-14.45-5.73-5.96-11.04-12.31-15.89-19.01-1.12-1.55-3.72-.05-2.59,1.51,5.08,7.03,10.64,13.71,16.68,19.95,5.61,5.8,11.57,11.89,19.22,14.89,1.8,.71,2.58-2.19,.8-2.89h0Z"/><path class="cls-2" d="M132.54,110.98c-7.09-3.41-13.31-8.31-18.31-14.39-1.23-1.49-3.34,.64-2.12,2.12,5.13,6.25,11.63,11.35,18.91,14.86,1.73,.83,3.25-1.75,1.51-2.59h0Z"/><path class="cls-2" d="M128.34,99.83c-6.02-2.64-11.74-5.99-16.92-10.03-.64-.5-1.5-.62-2.12,0-.52,.52-.64,1.62,0,2.12,5.4,4.21,11.25,7.75,17.53,10.5,.74,.32,1.61,.22,2.05-.54,.37-.64,.21-1.73-.54-2.05h0Z"/><path class="cls-2" d="M131.98,117.49c-3.62-2.24-6.8-5.35-9.11-8.9-.44-.68-1.33-.96-2.05-.54-.67,.39-.98,1.37-.54,2.05,2.62,4.03,6.1,7.44,10.19,9.97,.67,.41,1.68,.17,2.05-.54s.17-1.61-.54-2.05h0Z"/><path class="cls-2" d="M135.1,153.37c9.84-10.11,18.82-21.04,26.84-32.64,1.1-1.59-1.5-3.09-2.59-1.51-7.88,11.39-16.71,22.11-26.37,32.04-1.35,1.38,.77,3.51,2.12,2.12h0Z"/><path class="cls-2" d="M132.3,135.56c-6.31-3.27-13.13-5.43-19.44-8.71s-11.35-7.54-15.43-13.01c-1.14-1.53-3.74-.04-2.59,1.51,4.2,5.65,9.52,10.32,15.72,13.67,6.52,3.52,13.66,5.72,20.23,9.13,1.71,.89,3.23-1.7,1.51-2.59h0Z"/><path class="cls-2" d="M131.52,129.74c-11.06-4.18-22.25-8.48-31.7-15.75-.65-.5-1.67-.09-2.05,.54-.46,.77-.1,1.56,.54,2.05,9.66,7.42,21.13,11.79,32.42,16.05,1.81,.68,2.59-2.22,.8-2.89h0Z"/><path class="cls-2" d="M129.44,156.26c1.93,0,1.93-3,0-3s-1.93,3,0,3h0Z"/><path class="cls-2" d="M132.97,155.52c-10.92-5.13-20.95-11.97-29.68-20.29-1.4-1.33-3.52,.79-2.12,2.12,8.91,8.49,19.14,15.53,30.28,20.76,1.74,.82,3.26-1.77,1.51-2.59h0Z"/><path class="cls-2" d="M132.74,145.31c-8.45-3.74-16.35-8.64-23.4-14.61-1.47-1.24-3.6,.87-2.12,2.12,7.25,6.14,15.31,11.23,24,15.08,1.75,.77,3.28-1.81,1.51-2.59h0Z"/><path class="cls-2" d="M120.18,67.24c7.49-11.47,8.46-26.49,2.71-38.89-.81-1.75-3.4-.23-2.59,1.51,5.3,11.44,4.16,25.34-2.71,35.86-1.06,1.62,1.54,3.13,2.59,1.51h0Z"/><path class="cls-2" d="M116.51,63.41c-3.53-1.09-5.52-4.6-6.36-7.99-1.14-4.61-.43-9.49-.9-14.18-.19-1.9-3.19-1.92-3,0,.53,5.29-.32,10.81,1.28,15.97,1.27,4.08,3.96,7.8,8.18,9.1,1.85,.57,2.64-2.33,.8-2.89h0Z"/><path class="cls-2" d="M124,77.11c2.89-5.27,5.11-10.89,6.59-16.71,.48-1.87-2.42-2.67-2.89-.8-1.42,5.58-3.52,10.95-6.29,16-.93,1.69,1.66,3.21,2.59,1.51h0Z"/><path class="cls-2" d="M127.67,97.97l.96-2.15c.11-.17,.17-.36,.18-.56,.04-.2,.04-.4-.03-.6-.1-.35-.36-.73-.69-.9-.35-.18-.77-.28-1.16-.15l-.36,.15c-.23,.13-.4,.31-.54,.54l-.96,2.15c-.11,.17-.17,.36-.18,.56-.04,.2-.04,.4,.03,.6,.1,.35,.36,.73,.69,.9,.35,.18,.77,.28,1.16,.15l.36-.15c.23-.13,.4-.31,.54-.54h0Z"/><path class="cls-2" d="M133.37,140.06c.69-.72,1.43-1.39,2.21-2l-.3,.23c.69-.53,1.41-1.02,2.16-1.45,.68-.39,.98-1.37,.54-2.05s-1.33-.96-2.05-.54c-1.72,1-3.31,2.25-4.68,3.69-.54,.57-.61,1.56,0,2.12s1.54,.61,2.12,0h0Z"/><path class="cls-15" d="M141.27,199.59c-.37,.55-.75,1.1-1.12,1.65-42.03-32.41-67.15-57.27-123.04-63.46,.17-.63,.35-1.25,.52-1.88,56.14,6.24,81.43,31.1,123.63,63.69Z"/><path class="cls-2" d="M51.96,143.19c-9.7-13.87-22.83-25.27-37.98-32.84-4.25-2.13-8.66-3.95-13.16-5.47-1.83-.62-2.62,2.28-.8,2.89,15.44,5.2,29.47,14.28,40.6,26.16,3.17,3.38,6.09,6.98,8.74,10.78,1.1,1.57,3.7,.07,2.59-1.51h0Z"/><path class="cls-2" d="M65.05,148.05c-2.96-17.04-10.04-33.29-20.51-47.05-1.15-1.52-3.76-.02-2.59,1.51,10.34,13.59,17.29,29.51,20.21,46.33,.33,1.9,3.22,1.09,2.89-.8h0Z"/><path class="cls-2" d="M58.72,145.35c-4.29-9.38-6.46-19.75-13.01-27.98-1.2-1.51-3.31,.63-2.12,2.12,6.33,7.94,8.39,18.3,12.54,27.37,.8,1.75,3.39,.23,2.59-1.51h0Z"/><path class="cls-2" d="M44.63,142.72c-7.8-11.78-19.29-20.78-32.59-25.54-1.82-.65-2.6,2.24-.8,2.89,12.52,4.49,23.45,13.07,30.79,24.17,1.06,1.6,3.66,.1,2.59-1.51h0Z"/><path class="cls-2" d="M94.12,160.9c-6.71-16.49-15.72-31.91-26.79-45.86-1.2-1.51-3.31,.62-2.12,2.12,10.72,13.51,19.52,28.56,26.02,44.53,.72,1.76,3.62,.99,2.89-.8h0Z"/><path class="cls-2" d="M81.72,156.84c-4.96-10.41-9.79-20.89-14.49-31.42-.78-1.76-3.37-.24-2.59,1.51,4.7,10.53,9.53,21.01,14.49,31.42,.83,1.74,3.42,.22,2.59-1.51h0Z"/><path class="cls-2" d="M87.26,160.75c-1.73-1.98-2.24-4.8-2.93-7.27-.86-3.08-1.72-6.16-2.58-9.24-.52-1.86-3.41-1.07-2.89,.8,.92,3.3,1.84,6.6,2.76,9.9,.79,2.83,1.54,5.67,3.51,7.93,1.27,1.46,3.39-.67,2.12-2.12h0Z"/><path class="cls-2" d="M30.26,141.89c-4.47,3.5-9,7-14.1,9.53-5.49,2.72-11.44,3.64-17.52,3.71-1.93,.02-1.93,3.02,0,3,6.48-.08,12.77-1.1,18.64-3.93,5.49-2.64,10.32-6.45,15.1-10.19,1.52-1.19-.62-3.3-2.12-2.12h0Z"/><path class="cls-2" d="M39.93,141.62c-5.17,2.61-9.3,6.73-14,10.04-2.28,1.6-4.72,3.03-7.41,3.82-3.37,.99-6.95,1.02-10.41,.5-1.89-.28-2.7,2.61-.8,2.89,3.56,.53,7.16,.63,10.69-.16,3.06-.68,5.9-2.09,8.5-3.81,5.11-3.39,9.42-7.9,14.94-10.68,1.72-.87,.21-3.46-1.51-2.59h0Z"/><path class="cls-2" d="M47.52,143.13c-7.98,6.05-15.96,12.09-23.94,18.14-1.52,1.15-.03,3.76,1.51,2.59,7.98-6.05,15.96-12.09,23.94-18.14,1.52-1.15,.03-3.76-1.51-2.59h0Z"/><path class="cls-2" d="M78.88,158.14c-6.18,4.72-14.15,6.49-21.59,8.18-8.23,1.88-16.58,3.16-25,3.85-1.91,.16-1.93,3.16,0,3,8.68-.71,17.31-2.01,25.79-3.95,7.67-1.75,15.93-3.62,22.31-8.49,1.51-1.16,.02-3.76-1.51-2.59h0Z"/><path class="cls-2" d="M68.9,150.3c-6.6,4.29-14.01,7.06-21.79,8.18-.81,.12-1.24,1.13-1.05,1.85,.23,.86,1.05,1.16,1.85,1.05,8.01-1.16,15.72-4.07,22.51-8.49,1.61-1.05,.11-3.65-1.51-2.59h0Z"/><path class="cls-2" d="M57.18,148.12c-5.38,3.79-11.2,6.92-17.35,9.26-.76,.29-1.28,1.01-1.05,1.85,.2,.72,1.08,1.34,1.85,1.05,6.4-2.43,12.47-5.62,18.07-9.56,.66-.47,.97-1.31,.54-2.05-.38-.65-1.39-1.01-2.05-.54h0Z"/><path class="cls-2" d="M74.17,154.16c-3.82,1.94-8.04,3.01-12.31,3.16-1.93,.06-1.93,3.07,0,3,4.82-.16,9.53-1.38,13.83-3.57,.72-.37,.93-1.38,.54-2.05-.43-.73-1.33-.91-2.05-.54h0Z"/><path class="cls-2" d="M106.5,170.02c-3.55-13.66-8.26-26.99-14.02-39.87-.79-1.76-3.37-.24-2.59,1.51,5.66,12.64,10.23,25.75,13.72,39.16,.49,1.87,3.38,1.08,2.89-.8h0Z"/><path class="cls-2" d="M89.79,163.25c-5.9,3.6-11.15,8.15-17.02,11.8s-12.62,6.07-19.62,6.74c-1.9,.18-1.92,3.18,0,3,7.23-.69,14.16-2.95,20.38-6.69s11.61-8.51,17.77-12.26c1.65-1,.14-3.6-1.51-2.59h0Z"/><path class="cls-2" d="M84.42,160.9c-9.18,7.19-18.58,14.53-29.55,18.8-1.78,.69-1.01,3.59,.8,2.89,11.49-4.47,21.26-12.03,30.88-19.57,1.52-1.19-.62-3.3-2.12-2.12h0Z"/><path class="cls-2" d="M104.77,177.11c1.93,0,1.93-3,0-3s-1.93,3,0,3h0Z"/><path class="cls-2" d="M107.21,173.02c-10.05,6.68-21.09,11.7-32.73,14.85-1.86,.5-1.07,3.4,.8,2.89,11.88-3.22,23.2-8.34,33.45-15.16,1.6-1.06,.1-3.66-1.51-2.59h0Z"/><path class="cls-2" d="M98.35,167.92c-7.58,5.29-15.85,9.49-24.62,12.43-1.82,.61-1.04,3.51,.8,2.89,9-3.02,17.55-7.29,25.33-12.73,1.57-1.1,.07-3.7-1.51-2.59h0Z"/><path class="cls-2" d="M25.1,138.15c-5.92-12.35-18.29-20.93-31.85-22.43-1.92-.21-1.9,2.79,0,3,12.54,1.39,23.83,9.61,29.26,20.94,.83,1.74,3.42,.22,2.59-1.51h0Z"/><path class="cls-2" d="M19.91,139.37c-2.92,2.59-7.27,2.28-10.71,1.06-4.28-1.51-7.92-4.44-12-6.39-1.73-.83-3.26,1.76-1.51,2.59,4.64,2.21,8.77,5.61,13.77,7.02,4.3,1.22,9.13,.9,12.58-2.17,1.45-1.28-.68-3.4-2.12-2.12h0Z"/><path class="cls-2" d="M35.52,139.99c-3-5.2-6.67-10.01-10.89-14.29-1.36-1.38-3.48,.74-2.12,2.12,4.04,4.1,7.53,8.69,10.42,13.68,.97,1.67,3.56,.16,2.59-1.51h0Z"/><path class="cls-2" d="M55.26,147.66l-1.34-1.94c-.09-.17-.22-.32-.39-.42-.14-.13-.31-.22-.51-.27-.2-.06-.4-.07-.6-.03-.2,0-.39,.07-.56,.18-.32,.21-.6,.51-.69,.9s-.08,.83,.15,1.16l1.34,1.94c.09,.17,.22,.32,.39,.42,.14,.13,.31,.22,.51,.27,.2,.06,.4,.07,.6,.03,.2,0,.39-.07,.56-.18,.32-.21,.6-.51,.69-.9s.08-.83-.15-1.16h0Z"/><path class="cls-2" d="M94.22,164.6c-.12-.44-.23-.89-.32-1.33-.04-.22-.09-.45-.12-.68-.02-.12-.04-.24-.06-.37-.05-.31,.04,.32,0-.02-.11-.91-.16-1.82-.14-2.74,.01-.78-.7-1.54-1.5-1.5s-1.49,.66-1.5,1.5c-.03,1.99,.22,4.01,.75,5.93,.21,.76,1.08,1.3,1.85,1.05s1.27-1.03,1.05-1.85h0Z"/><path class="cls-15" d="M119.3,191.59c-.55,.37-1.1,.75-1.65,1.12-26.96-45.72-41.05-78.13-90.62-104.66,.39-.52,.79-1.03,1.18-1.55,49.79,26.67,64.03,59.15,91.09,105.1Z"/><path class="cls-2" d="M57.33,105.85c-3.82-16.37-11.77-31.68-22.88-44.29-3.14-3.57-6.54-6.9-10.16-9.98-1.46-1.25-3.59,.87-2.12,2.12,12.44,10.6,22.22,24.28,28.13,39.53,1.69,4.37,3.07,8.85,4.13,13.42,.44,1.88,3.33,1.08,2.89-.8h0Z"/><path class="cls-2" d="M67.67,115.63c3.62-17.08,3.1-34.88-1.54-51.71-.51-1.86-3.41-1.07-2.89,.8,4.5,16.3,5.04,33.57,1.54,50.12-.4,1.88,2.49,2.69,2.89,.8h0Z"/><path class="cls-2" d="M62.85,110.76c-.49-10.28,1.38-20.79-1.62-30.84-.55-1.85-3.45-1.06-2.89,.8,2.92,9.76,1.04,20.04,1.51,30.04,.09,1.92,3.09,1.93,3,0h0Z"/><path class="cls-2" d="M50.7,102.69c-2.82-13.66-10.12-26.27-20.56-35.52-1.44-1.28-3.57,.84-2.12,2.12,10.09,8.94,17.06,20.99,19.79,34.19,.39,1.89,3.28,1.09,2.89-.8h0Z"/><path class="cls-2" d="M89.93,137.98c-.1-17.65-2.72-35.26-7.76-52.17-.55-1.85-3.45-1.06-2.89,.8,4.97,16.67,7.55,33.97,7.65,51.37,.01,1.93,3.01,1.93,3,0h0Z"/><path class="cls-2" d="M79.93,129.98c-.73-11.51-1.32-23.03-1.76-34.56-.07-1.92-3.07-1.93-3,0,.44,11.53,1.03,23.05,1.76,34.56,.12,1.92,3.12,1.93,3,0h0Z"/><path class="cls-2" d="M83.67,135.64c-.94-2.7-.35-5.66-.05-8.42,.34-3.1,.68-6.2,1.02-9.3,.09-.81-.75-1.5-1.5-1.5-.88,0-1.41,.69-1.5,1.5-.35,3.22-.7,6.44-1.06,9.65-.32,2.94-.81,6,.19,8.87,.63,1.81,3.53,1.03,2.89-.8h0Z"/><path class="cls-2" d="M37.9,96.69c-5.78,1.68-11.64,3.41-17.69,3.72s-11.49-1.07-16.94-3.18c-1.8-.7-2.58,2.2-.8,2.89,5.68,2.2,11.61,3.6,17.74,3.29s12.44-2.07,18.48-3.83c1.85-.54,1.06-3.43-.8-2.89h0Z"/><path class="cls-2" d="M47,100.08c-6.12,.53-11.76,2.98-17.71,4.3-2.88,.64-5.88,.95-8.81,.46-3.12-.52-6.02-1.76-8.74-3.35-1.67-.98-3.18,1.61-1.51,2.59,5.64,3.31,11.7,4.65,18.17,3.53s12.19-3.97,18.59-4.53c1.91-.17,1.93-3.17,0-3h0Z"/><path class="cls-2" d="M53.09,104.36c-9.66,2.65-19.31,5.29-28.97,7.94-1.86,.51-1.07,3.4,.8,2.89,9.66-2.65,19.31-5.29,28.97-7.94,1.86-.51,1.07-3.4-.8-2.89h0Z"/><path class="cls-2" d="M76.62,129.95c-7.74,2.14-16.22,.65-23.99-.64s-15.94-3.21-23.71-5.61c-1.85-.57-2.64,2.32-.8,2.89,8.07,2.49,16.31,4.43,24.65,5.76s16.64,2.7,24.64,.48c1.86-.51,1.07-3.41-.8-2.89h0Z"/><path class="cls-2" d="M70.27,118.96c-7.56,1.49-15.37,1.31-22.87-.5-1.88-.45-2.68,2.44-.8,2.89,8.03,1.94,16.36,2.1,24.46,.5,1.89-.37,1.09-3.27-.8-2.89h0Z"/><path class="cls-2" d="M60.2,112.58c-6.41,1.51-12.95,2.21-19.54,2.1-1.93-.03-1.93,2.97,0,3,6.84,.11,13.68-.63,20.34-2.21,1.88-.44,1.08-3.34-.8-2.89h0Z"/><path class="cls-2" d="M74.12,124.45c-4.42,.39-8.81-.17-12.99-1.68-.76-.28-1.64,.31-1.85,1.05-.23,.83,.28,1.57,1.05,1.85,4.39,1.59,9.13,2.21,13.78,1.79,.81-.07,1.5-.64,1.5-1.5,0-.76-.69-1.57-1.5-1.5h0Z"/><path class="cls-2" d="M98.03,151.04c1.77-13.87,2.37-27.87,1.82-41.84-.08-1.92-3.08-1.93-3,0,.56,13.97-.05,27.97-1.82,41.84-.24,1.91,2.76,1.89,3,0h0Z"/><path class="cls-2" d="M84.85,138.75c-6.82,1.15-13.38,3.42-20.19,4.63s-13.95,.85-20.69-1.13c-1.86-.54-2.65,2.35-.8,2.89,6.96,2.04,14.22,2.43,21.37,1.28s13.98-3.58,21.11-4.78c1.9-.32,1.09-3.21-.8-2.89h0Z"/><path class="cls-2" d="M81.1,134.47c-11.34,3.31-22.86,6.63-34.78,6.52-1.93-.02-1.93,2.98,0,3,12.18,.12,23.99-3.24,35.58-6.62,1.85-.54,1.06-3.44-.8-2.89h0Z"/><path class="cls-2" d="M94.33,157.26c1.93,0,1.93-3,0-3s-1.93,3,0,3h0Z"/><path class="cls-2" d="M97.39,154.3c-11.8,2.46-23.93,2.97-35.9,1.57-1.91-.22-1.9,2.78,0,3,12.24,1.43,24.64,.84,36.7-1.68,1.89-.39,1.09-3.29-.8-2.89h0Z"/><path class="cls-2" d="M91.06,146.27c-9,2.09-18.24,2.86-27.46,2.34-1.93-.11-1.92,2.89,0,3,9.49,.54,19.01-.29,28.26-2.44,1.88-.44,1.08-3.33-.8-2.89h0Z"/><path class="cls-2" d="M34.32,91.58c-.9-13.62-8.99-26.34-21.05-32.79-1.7-.91-3.22,1.68-1.51,2.59,11.1,5.94,18.73,17.62,19.56,30.2,.13,1.92,3.13,1.93,3,0h0Z"/><path class="cls-2" d="M29.23,90.5c-3.87,1.4-7.94-.51-10.79-3.16-3.29-3.06-5.59-7.01-8.63-10.3-1.31-1.42-3.43,.7-2.12,2.12,3.33,3.6,5.78,8.05,9.63,11.16,3.5,2.83,8.26,4.68,12.71,3.07,1.8-.65,1.02-3.55-.8-2.89h0Z"/><path class="cls-2" d="M43.25,96.76c-.84-5.82-2.42-11.51-4.69-16.94-.31-.75-.99-1.28-1.85-1.05-.7,.19-1.36,1.09-1.05,1.85,2.27,5.43,3.85,11.12,4.69,16.94,.12,.8,1.13,1.24,1.85,1.05,.86-.24,1.16-1.04,1.05-1.85h0Z"/><path class="cls-2" d="M58.73,111.23l-.53-2.3c-.08-.36-.38-.71-.69-.9s-.8-.27-1.16-.15-.71,.34-.9,.69c-.19,.37-.24,.75-.15,1.16l.53,2.3c.08,.36,.38,.71,.69,.9s.8,.27,1.16,.15,.71-.34,.9-.69c.19-.37,.24-.75,.15-1.16h0Z"/><path class="cls-2" d="M88.65,141.45c.02-.13,.03-.26,.05-.4l-.05,.4c.23-1.72,.69-3.4,1.37-5,.14-.33,.02-.86-.15-1.16-.18-.31-.54-.61-.9-.69-.38-.09-.81-.07-1.16,.15s-.53,.51-.69,.9c-.78,1.86-1.24,3.79-1.47,5.79-.04,.36,.2,.82,.44,1.06,.26,.26,.69,.46,1.06,.44s.79-.14,1.06-.44c.29-.31,.39-.64,.44-1.06h0Z"/><path class="cls-11" d="M55.09,146.72c6.18-.36,11.53,3.35,16.48,6.57,5.48,3.57,10.91,7.22,16.28,10.94,10.64,7.38,21.07,15.07,31.27,23.06,5.83,4.57,11.58,9.24,17.25,14,1.47,1.23,3.6-.88,2.12-2.12-20.5-17.2-42.02-33.18-64.42-47.82-5.69-3.72-11.85-8.04-18.98-7.63-1.92,.11-1.93,3.11,0,3h0Z"/><path class="cls-11" d="M44.12,97.36c13.17,7.87,24.44,18.44,34.11,30.29s18.12,25.51,25.71,39.15c4.27,7.68,8.34,15.48,12.38,23.29,.89,1.72,3.48,.2,2.59-1.51-7.3-14.11-14.69-28.2-23.22-41.61s-17.82-25.7-29.2-36.37c-6.38-5.98-13.35-11.33-20.86-15.82-1.66-.99-3.17,1.6-1.51,2.59h0Z"/><path class="cls-11" d="M123.8,81.5c5.99,29.28,7.89,59.37,5.66,89.17-.62,8.35-1.57,16.67-2.85,24.95-.29,1.89,2.6,2.7,2.89,.8,4.62-29.97,5.1-60.53,1.32-90.62-1.06-8.42-2.43-16.79-4.13-25.1-.39-1.89-3.28-1.09-2.89,.8h0Z"/><path class="cls-11" d="M93.18,102.81c16.63,21.25,29.87,45.18,39.06,70.54,2.62,7.22,4.9,14.56,6.87,21.99,.49,1.86,3.39,1.07,2.89-.8-7.03-26.61-18.32-52.09-33.32-75.16-4.18-6.43-8.65-12.65-13.38-18.69-1.19-1.52-3.3,.62-2.12,2.12h0Z"/></g><g><path d="M303.31,266.96c.57,1.27,.98,2.22,1.24,2.85,4.54,10.28,7.77,17.04,9.68,20.27,1.91,3.24,3.68,4.9,5.31,5.01,2.57,.17,4.57-2.14,6-6.92,.94,.64,1.41,1.32,1.41,2.06,0,2.1-1.21,4.73-3.62,7.87-2.41,3.14-4.44,4.71-6.06,4.71-2.37,0-5.46-3.04-9.26-9.12-3.8-6.08-7.56-14.03-11.28-23.86-1.57,.17-2.92,.25-4.03,.25s-2.46-.08-4.12-.25l-.31,3.31-.56,5.76c-.49,4.78-1.36,8.21-2.61,10.3-1.26,2.09-3.7,4.14-7.32,6.14l10.1,.75-5.14,5.81-18.53-1.1,5.48-6.22,4.67,.6c3.45-2.57,5.59-7.84,6.42-15.79l.47-4.86,3.59-37.99c-12.99,2.87-19.48,8.6-19.48,17.19,0,3.44,.61,6.5,1.84,9.17l-6.89,7.12c-.6-2.57-.9-5.18-.9-7.82,0-9.05,3.3-16.46,9.89-22.2,6.59-5.75,15.08-8.62,25.47-8.62,14.1,0,21.15,5.25,21.15,15.76,0,7.66-4.2,14.27-12.6,19.82Zm-11.56-30.76l-2.75,29.12c2.29,.44,4.38,.65,6.27,.65,1.77,0,3.71-.22,5.8-.65,5.12-4.28,7.69-9.47,7.69-15.56,0-9.04-5.67-13.56-17-13.56Z"/><path d="M354.85,284.86c.71,.57,1.07,1.24,1.07,2,0,1.04-.91,2.81-2.74,5.31-4.88,6.62-9.7,9.92-14.47,9.92-2.91,0-5.31-1.35-7.19-4.06-1.88-2.71-2.83-6.17-2.83-10.38,0-7.62,2.46-15.33,7.38-23.13,4.92-7.8,9.79-11.7,14.62-11.7,3.48,0,5.22,2.19,5.22,6.57,0,4.91-2.03,9.71-6.1,14.39-4.07,4.68-9.02,7.94-14.87,9.77,.57,8.02,3.28,12.03,8.13,12.03s8.72-3.58,11.77-10.73Zm-19.73-7.42c.83,.33,1.58,.5,2.27,.5,3.54,0,6.63-1.27,9.29-3.81,2.65-2.54,3.98-5.51,3.98-8.92,0-3.91-1.7-5.86-5.09-5.86-2.45,0-4.67,1.71-6.66,5.14-1.98,3.43-3.25,7.74-3.79,12.96Z"/><path d="M358.71,299.4l5.92-5.66c2.23,2.77,5.03,4.16,8.41,4.16,4.12,0,6.18-2.32,6.18-6.97,0-2.57-1.89-6.17-5.67-10.78l-2.45-2.96c-3.58-4.38-5.37-7.92-5.37-10.63,0-3.88,1.43-7.13,4.3-9.77,2.87-2.64,6.4-3.96,10.59-3.96,2.28,0,4.78,.5,7.49,1.5l-5.14,5.56c-2.17-1.9-4.58-2.86-7.23-2.86-3.11,0-4.67,1.52-4.67,4.56,0,2.17,1.73,5.36,5.18,9.57l2.65,3.31c3.94,4.81,5.91,8.69,5.91,11.63,0,4.21-1.73,7.93-5.18,11.15-3.45,3.23-7.43,4.84-11.94,4.84-3.2,0-6.19-.9-8.99-2.71Z"/><path d="M405.97,259.95l-2.07,22.15c-.37,3.98-.56,6.92-.56,8.82,0,3.78,1.1,5.66,3.29,5.66,2.36,0,4.81-2.27,7.34-6.82,.43,.63,.64,1.2,.64,1.7,0,1.87-1.41,4.11-4.22,6.72-2.81,2.61-5.23,3.91-7.26,3.91-4.05,0-6.08-3.04-6.08-9.12,0-2.24,.24-5.86,.73-10.88l2.05-22.15h-8.99l4.98-5.81h4.56l.91-9.12,6.31-2.46-1.04,11.58h18.15l-5.02,5.81h-13.72Z"/><path d="M449.54,280.9c-3.22,6.22-6.76,11.3-10.62,15.26-3.86,3.96-7.22,5.94-10.07,5.94-3.9,0-5.86-3.69-5.86-11.08,0-10.16,2.85-18.95,8.54-26.39,5.69-7.43,12.43-11.15,20.23-11.15,2.97,0,5.49,.43,7.58,1.3-.14,.6-.23,.97-.26,1.1l-.51,2.65c-.34,1.84-.53,2.9-.56,3.2l-2.74,22.13-.39,3.2c-.37,3.17-.56,5.29-.56,6.36,0,1.44,.36,2.15,1.07,2.15,2.39,0,4.83-3.12,7.33-9.37,.77,.54,1.15,1.07,1.15,1.6,0,1.17-1.23,3.53-3.68,7.07-3.34,4.81-6.44,7.22-9.29,7.22-2.08,0-3.12-1.64-3.12-4.91,0-1,.1-2.39,.3-4.16l.43-4.01,.56-4.41,.47-3.71Zm2.44-19.85c-2.6-1.7-5.23-2.55-7.88-2.55-4,0-7.35,2.85-10.06,8.56-2.71,5.71-4.07,12.78-4.07,21.22,0,4.34,1.1,6.51,3.3,6.51,2.54,0,5.61-2.27,9.21-6.81,4.85-6.11,7.79-13.28,8.82-21.52l.69-5.41Z"/><path d="M481.95,273.93c6.33-14.07,12.56-21.1,18.7-21.1,1.6,0,3.19,.43,4.79,1.3l-6.03,7.72c-.91-.6-2.08-.9-3.51-.9-2.97,0-6.1,2.82-9.39,8.45-3.29,5.63-5.23,11.49-5.8,17.57l-1.16,12.23-6.36,2.51,.13-1.5,.3-3.26,.34-3.26,2.25-23.86,.26-2.61c.2-1.97,.3-3.58,.3-4.81,0-2.04-.49-3.06-1.46-3.06-2.29,0-4.56,2.86-6.81,8.57-.71-.63-1.06-1.29-1.03-1.96,.09-2.04,1.68-4.74,4.78-8.09,3.1-3.36,5.55-5.04,7.35-5.04,2.43,0,3.64,1.87,3.64,5.61,0,.9-.07,2.12-.21,3.66l-.3,3.51-.39,4.21-.39,4.11Z"/><path d="M517.86,259.95l-2.07,22.15c-.37,3.98-.56,6.92-.56,8.82,0,3.78,1.1,5.66,3.29,5.66,2.36,0,4.81-2.27,7.34-6.82,.43,.63,.64,1.2,.64,1.7,0,1.87-1.41,4.11-4.22,6.72-2.81,2.61-5.23,3.91-7.26,3.91-4.05,0-6.08-3.04-6.08-9.12,0-2.24,.24-5.86,.73-10.88l2.05-22.15h-8.99l4.98-5.81h4.56l.91-9.12,6.31-2.46-1.04,11.58h18.15l-5.02,5.81h-13.72Z"/></g></svg>