<?xml version="1.0" encoding="UTF-8"?><svg id="Layer_3" xmlns="http://www.w3.org/2000/svg" width="530" height="699" viewBox="0 0 530 699"><defs><style>.cls-1{fill:#ff5112;}.cls-2{fill:#f4ff28;}.cls-3{fill:#ff9204;}</style></defs><g><path class="cls-1" d="M4.51,388.49c-2.14,44.02-3.49,88.82,7.72,131.44,23.28,88.5,104.56,158.67,195.52,168.79,43.73,4.86,88.11-3.04,129.88-16.85,17.11-5.65,33.94-12.32,49.66-21.13,67.33-37.76,109.03-116.91,102.1-193.79-4.93,12.13-17.48,19.81-30.31,22.41-12.83,2.6-26.09,.93-39.08-.75,31.64-34.92,46.99-84.02,40.86-130.74-6.61-50.44-36.68-98.05-30.38-148.53,3.22-25.85,16.4-50.32,36.2-67.25-31.56,6.15-58.56,28.09-75.95,55.13-17.39,27.04-26.05,58.84-30.7,90.66-1.85-49.83-13.45-99.27-33.94-144.73-8.83-19.58-19.47-39.12-20.8-60.55-1.45-23.41,8.43-45.91,18.82-66.94-50.69,24.46-97.79,56.36-139.32,94.36-8.5,7.78-16.85,15.91-23.06,25.61-7.92,12.37-12.03,26.76-15.24,41.08-8,35.72-11,72.55-8.91,109.09-30.72-9.41-51.33-44.07-44.91-75.55-39.24,43.2-50.82,109.52-28.55,163.47,4.66,11.3,10.69,22.11,13.79,33.93,3.1,11.82,2.88,25.29-4.23,35.23s-22.51,14.25-32.09,6.66c-2.99-2.37-5.16-5.59-7.28-8.76-9.58-14.31-19.15-28.63-28.73-42.94C1.15,420.95-.43,454.46,.92,487.85"/><path d="M3.01,388.49c-1.57,32.36-2.75,64.95,1.24,97.19,3.32,26.86,10.49,52.91,22.72,77.1,21.96,43.45,58.02,79.62,100.95,102.44,21.46,11.41,44.72,19.53,68.72,23.47,29.96,4.92,60.7,3.39,90.47-2.12,30.74-5.69,61.65-15.02,89.8-28.72,23.3-11.34,44.14-27.1,61.38-46.45,33.01-37.05,52.83-86.05,53.33-135.8,.06-6.23-.2-12.45-.74-18.65-.11-1.3-2.15-2.27-2.8-.76-11.28,26.47-44.7,23.94-68.09,20.92,.35,.85,.71,1.71,1.06,2.56,31.07-34.53,46.78-82.29,41.7-128.54-5.48-49.9-35.46-95.99-31.25-147.14,2.25-27.29,15.55-52.96,36.24-70.84,1.22-1.06-.11-2.78-1.46-2.51-50.07,10.04-82.91,54.62-97.5,100.86-4.73,15-7.91,30.43-10.2,45.97,.98,.13,1.96,.27,2.95,.4-1.44-36.99-8.07-73.74-19.8-108.86-5.73-17.13-12.92-33.56-20.48-49.95-7.67-16.61-14.94-33.98-14.57-52.62,.41-21.3,9.49-41.28,18.75-60.04,.68-1.38-.68-2.72-2.05-2.05-41.21,19.94-80.02,44.69-115.46,73.68-8.86,7.25-17.52,14.75-25.92,22.53-8.09,7.49-15.95,15.42-21.86,24.8-12.26,19.48-16.38,43.9-19.88,66.28-4.34,27.82-5.72,56.04-4.15,84.15l1.9-1.45c-30.06-9.48-49.9-42.76-43.86-73.71,.27-1.36-1.43-2.66-2.51-1.46-28.03,31.08-42.2,73.45-39.98,115.13,1.15,21.67,7.19,41.7,16.16,61.34,5.21,11.39,10.49,23.21,10.53,35.97,.03,11.1-4.22,22.48-14.6,27.71-4.96,2.49-11.03,3.45-16.37,1.62-6.71-2.3-10.27-8.78-14-14.34-8.82-13.18-17.64-26.37-26.46-39.55-.89-1.32-2.6-.69-2.8,.76C-.32,420.98-1.89,454.44-.58,487.85c.08,1.92,3.08,1.93,3,0-1.31-33.41,.27-66.87,4.7-100.01-.93,.25-1.86,.5-2.8,.76,8.06,12.05,16.13,24.11,24.19,36.16,5.91,8.83,11.31,19.19,23.09,20.09,8.83,.67,17.9-3.78,23.13-10.84,6.63-8.95,7.57-20.77,5.79-31.44-2.07-12.41-8.12-23.71-13.16-35.1-4.63-10.48-8.11-21.39-10.25-32.65-4.22-22.12-3.44-45.16,1.89-67.03,5.99-24.59,17.78-47.65,34.75-66.47l-2.51-1.46c-6.37,32.59,14.26,67.41,45.95,77.4,.89,.28,1.95-.49,1.9-1.45-1.36-24.44-.53-48.99,2.61-73.27,1.61-12.48,3.83-24.89,6.64-37.16,2.5-10.88,5.54-21.76,10.59-31.76,10.13-20.08,29.05-35.03,45.99-49.21,17.32-14.5,35.49-27.98,54.39-40.35,21.03-13.77,42.94-26.14,65.57-37.09l-2.05-2.05c-8.04,16.32-15.79,33.25-18.33,51.43-2.51,17.97,1.65,35.06,8.54,51.59s15.63,33.71,22.05,51.22c6.49,17.7,11.69,35.88,15.55,54.33,4.43,21.21,7.04,42.75,7.88,64.4,.06,1.6,2.69,2.15,2.95,.4,7.31-49.55,25.51-101.52,69.54-129.94,11.02-7.11,23.19-12.21,36.06-14.8l-1.46-2.51c-17.33,14.97-29.7,35.42-34.8,57.76-5.44,23.86-1.77,48.36,4.59,71.64,6.77,24.77,16.36,48.75,21.62,73.93,4.96,23.76,4.82,48.18-.83,71.81-6.32,26.43-19.08,51.16-37.26,71.37-.94,1.04-.21,2.4,1.06,2.56,14.78,1.91,30.37,3.92,44.87-.71,11.05-3.53,21.17-10.8,25.81-21.7-.93-.25-1.86-.5-2.8-.76,4.32,49.41-11.17,99.39-40.78,138.96-14.84,19.83-33.33,37.02-54.47,49.96-25.74,15.76-55.22,25.68-84.36,33.01s-61.67,11.5-92.87,9.07c-24.81-1.93-49.16-8.24-71.87-18.41-43.67-19.56-81.22-52.68-105.91-93.69-12.94-21.49-22.01-44.96-27.01-69.54-6.31-31.04-6.66-62.92-5.59-94.45,.26-7.79,.62-15.58,1-23.36,.09-1.93-2.91-1.92-3,0h0Z"/></g><g><path class="cls-3" d="M156.13,674.67c-23.33-11.45-40.9-32.43-52.86-55.5-11.97-23.07-18.89-48.36-25.74-73.43-4.6-16.87-9.21-33.74-13.81-50.61,7.31,25.4,34.65,43.35,60.86,39.96-21.6-53.02-15.64-116.42,15.47-164.48,.05,24.15,15.75,47.55,38.09,56.75-4.69-28.48,.87-58.54,15.45-83.45,9.96-17.02,23.79-31.45,34.54-47.99,10.75-16.54,18.46-36.62,13.97-55.82,3.05,13.42,12.37,24.35,20.64,35.35,33.84,44.98,54.19,99.99,57.77,156.17,.79,12.38,.69,25.28-4.47,36.57,13.24-26.18,39.82-45.15,68.87-49.19-13.02,18.51-12.98,43.3-8.32,65.45,4.67,22.15,13.4,43.42,16.2,65.88,5.67,45.58-15.73,93.51-53.45,119.71"/><path d="M156.89,673.37c-21.83-10.81-38.37-29.7-50.06-50.74-13.65-24.58-20.95-52.01-28.31-78.96-4.45-16.32-8.91-32.64-13.36-48.96l-2.89,.8c5.98,20.31,24.01,35.98,44.6,40.28,5.83,1.22,11.8,1.51,17.71,.78,.85-.1,1.85-.89,1.45-1.9-16.67-41.16-16.87-88.22-1.46-129.8,4.35-11.75,10-22.99,16.78-33.53-.93-.25-1.86-.5-2.8-.76,.2,25.03,16.14,48.55,39.19,58.19,1.18,.49,2-.87,1.85-1.85-4.24-26.27,.22-53.83,12.58-77.4,12.71-24.22,34.11-42.76,45.48-67.77,5.99-13.17,9.12-27.76,5.89-42.09-.96,.27-1.93,.53-2.89,.8,3.6,15.23,14.49,26.98,23.45,39.29,9.41,12.93,17.73,26.65,24.87,40.96,14.25,28.54,23.81,59.46,28.08,91.08,1.21,9,2.09,18.1,2.29,27.18,.21,9.65-.62,19.5-4.6,28.41-.77,1.73,1.7,3.26,2.59,1.51,10.27-20.1,28.25-35.94,49.4-43.79,6.01-2.23,12.24-3.8,18.58-4.71-.56-.73-1.13-1.47-1.69-2.2-10.11,14.57-12.46,32.8-10.95,50.12,1.71,19.6,8.38,38.21,13.45,57.09,4.78,17.8,7.39,35.71,5.21,54.11-1.96,16.56-7.31,32.75-15.38,47.33-9.15,16.51-21.87,31.01-37.36,41.84-1.57,1.1-.07,3.7,1.51,2.59,27.3-19.08,46.24-49.09,52.66-81.71,3.37-17.16,3.03-34.53-.53-51.63-4.15-19.94-11.7-39.04-15.18-59.13-3.46-19.95-2.74-41.94,9.16-59.11,.84-1.21-.54-2.37-1.69-2.2-22.96,3.28-44.38,15.6-59.06,33.53-4.14,5.06-7.74,10.53-10.71,16.35,.86,.5,1.73,1.01,2.59,1.51,6.81-15.24,5.4-32.64,3.71-48.81-1.68-16.04-4.68-31.94-8.97-47.48-8.58-31.06-22.27-60.76-40.45-87.38-5.06-7.41-10.67-14.39-15.94-21.65-5.3-7.3-10.05-15.06-12.14-23.92-.44-1.88-3.32-1.08-2.89,.8,6.24,27.66-11.55,52.91-27.57,73.56-8.29,10.69-16.78,21.35-23.16,33.33-6.14,11.53-10.46,24.03-12.8,36.88-2.62,14.38-2.76,29.07-.43,43.49,.62-.62,1.23-1.23,1.85-1.85-21.78-9.12-36.8-31.74-36.98-55.3-.01-1.53-2-1.99-2.8-.76-24.41,37.88-33.43,84.85-25.94,129.19,2.11,12.48,5.57,24.71,10.32,36.45,.48-.63,.96-1.27,1.45-1.9-25.74,3.16-52.07-13.93-59.41-38.86-.54-1.85-3.4-1.07-2.89,.8,4.04,14.8,8.08,29.59,12.12,44.39,3.82,13.98,7.54,28,12.02,41.78,8.14,25.04,19.09,49.59,36.82,69.38,9.1,10.16,19.9,18.83,32.15,24.89,1.72,.85,3.25-1.73,1.51-2.59h0Z"/></g><g><path class="cls-2" d="M195.9,685.71c-39.15-15.77-64.83-59.74-59.34-101.58,1.78-13.55,6.42-26.56,8.65-40.04,2.23-13.48,1.76-28.22-5.83-39.58,25.94,14.37,44.79,40.93,49.78,70.17-8.94-24.57-5.47-52.37,4.69-76.46,10.16-24.09,26.54-45,43.74-64.69-10.81,19.33-9.49,44.81,3.27,62.92,8.95,12.7,22.74,21.7,30.21,35.33,9.01,16.44,7.21,36.44,5.16,55.07,16.67-3.97,31.44-15.3,39.6-30.37,17.23,46.68-2.78,104.21-45.26,130.13"/><path d="M196.3,684.26c-11.54-4.68-21.96-11.92-30.66-20.81-8.73-8.92-15.74-19.51-20.63-30.99-4.86-11.43-7.59-23.82-7.69-36.25-.12-15.41,4.77-29.96,8-44.86,3.06-14.09,4.36-29.55-2.02-42.96-.77-1.61-1.65-3.15-2.63-4.64l-2.05,2.05c20,11.13,35.78,29.49,44,50.84,2.3,5.96,4,12.14,5.09,18.43l2.89-.8c-6.91-19.17-6.27-40.15-.9-59.61,5.38-19.49,15.54-37.26,27.39-53.5,6.73-9.22,14.04-17.99,21.55-26.58-.79-.61-1.57-1.21-2.36-1.82-10.34,18.66-9.92,42.66,1.02,60.98,5.64,9.44,14.04,16.69,21.54,24.57,3.76,3.95,7.32,8.11,10.11,12.81,2.98,5.02,4.91,10.54,6.04,16.25,2.58,12.98,1.14,26.44-.29,39.46-.11,1.01,1.04,1.65,1.9,1.45,13.24-3.2,25.34-10.85,33.96-21.39,2.47-3.02,4.67-6.25,6.53-9.67l-2.74-.36c6.61,18.01,7.72,37.71,4,56.47-3.71,18.65-12.02,36.48-24.32,51.03-6.93,8.2-15.09,15.32-24.25,20.93-1.64,1.01-.14,3.6,1.51,2.59,16.79-10.29,30.26-25.48,39.21-42.97,8.91-17.39,13.55-37.06,12.91-56.62-.36-10.98-2.38-21.91-6.17-32.24-.42-1.14-2.08-1.57-2.74-.36-6.27,11.49-16.3,20.69-28.21,26.1-3.37,1.53-6.9,2.71-10.5,3.58,.63,.48,1.27,.96,1.9,1.45,1.28-11.67,2.48-23.52,.99-35.23-.72-5.63-2.05-11.13-4.29-16.35s-5.21-9.59-8.71-13.8c-6.94-8.33-15.51-15.19-22.12-23.81-6.44-8.4-10.38-18.55-11.46-29.07-1.21-11.8,.99-23.89,6.76-34.3,.8-1.44-1.2-3.14-2.36-1.82-13.55,15.52-26.59,31.72-36.58,49.82-9.98,18.08-16.72,38.11-17.38,58.88-.36,11.5,1.23,23.08,5.14,33.92,.66,1.83,3.22,1.1,2.89-.8-3.99-23.06-16.41-44.48-34.16-59.69-5.04-4.32-10.51-8.15-16.31-11.38-1.25-.7-2.91,.75-2.05,2.05,8.24,12.5,7.74,28.33,4.94,42.45-3.05,15.38-8.4,30.32-8.69,46.14-.23,12.64,2.21,25.32,6.83,37.08,4.63,11.76,11.36,22.65,19.87,32.01,8.45,9.29,18.7,17.05,30.11,22.33,1.43,.66,2.88,1.28,4.35,1.88,1.79,.73,2.57-2.18,.8-2.89h0Z"/></g></svg>